<?xml version="1.0" encoding="utf-8"?>
<!-- Generator: Adobe Illustrator 17.0.0, SVG Export Plug-In . SVG Version: 6.00 Build 0)  -->
<!DOCTYPE svg PUBLIC "-//W3C//DTD SVG 1.1//EN" "http://www.w3.org/Graphics/SVG/1.1/DTD/svg11.dtd">
<svg version="1.1" id="Vrstva_1" xmlns="http://www.w3.org/2000/svg" xmlns:xlink="http://www.w3.org/1999/xlink" x="0px" y="0px"
	 width="98px" height="64px" viewBox="0 0 98 64" enable-background="new 0 0 98 64" xml:space="preserve">
<g>
	<path fill="#575756" d="M14.304,24.415c-0.932-1.711,3.094-3.541-0.887-4.842C14.068,21.028,10.126,23.937,14.304,24.415z"/>
	<polygon fill="#575756" points="64.735,29.386 58.614,29.386 58.614,24.239 64.399,24.239 64.399,20.126 58.614,20.126 
		58.614,15.957 64.707,15.957 64.707,11.676 54.138,11.676 54.138,33.667 64.735,33.667 	"/>
	<path fill="#575756" d="M70.658,24.966h0.168l2.993,8.702h4.728l-3.133-9.177c1.025-0.354,1.725-0.998,2.098-1.931
		c0.373-0.933,0.56-2.294,0.56-4.085c0-1.306-0.098-2.397-0.294-3.274c-0.195-0.877-0.536-1.576-1.021-2.099
		c-0.485-0.522-1.147-0.891-1.986-1.105c-0.84-0.214-2.098-0.322-3.385-0.322h-5.204v21.992h4.477V24.966z M70.658,15.705h1.147
		c0.336,0,0.806,0.033,1.021,0.098c0.215,0.066,0.387,0.205,0.518,0.42c0.13,0.215,0.219,0.513,0.265,0.895
		c0.047,0.382,0.07,0.881,0.07,1.497c0,0.634-0.023,1.143-0.07,1.525c-0.047,0.382-0.135,0.671-0.265,0.867
		c-0.131,0.196-0.303,0.322-0.518,0.378c-0.214,0.056-0.685,0.084-1.021,0.084h-1.147V15.705z"/>
	<path fill="#575756" d="M80.996,32.325c0.289,0.485,0.653,0.849,1.091,1.091c0.438,0.243,0.961,0.396,1.567,0.462
		c0.606,0.065,0.918,0.097,1.701,0.097c0.784,0,1.997-0.032,2.603-0.097c0.606-0.066,1.128-0.219,1.567-0.462
		c0.438-0.242,0.801-0.606,1.092-1.091c0.288-0.485,0.521-1.147,0.699-1.986c0.177-0.839,0.303-1.879,0.378-3.12
		c0.074-1.24,0.111-2.746,0.111-4.519c0-1.772-0.037-3.278-0.111-4.519c-0.075-1.24-0.201-2.28-0.378-3.12
		c-0.178-0.84-0.411-1.506-0.699-2.001c-0.29-0.494-0.654-0.867-1.092-1.119c-0.439-0.252-0.961-0.41-1.567-0.476
		c-0.606-0.065-1.82-0.098-2.603-0.098c-0.783,0-1.095,0.033-1.701,0.098c-0.606,0.066-1.129,0.224-1.567,0.476
		s-0.802,0.625-1.091,1.119c-0.289,0.495-0.523,1.161-0.7,2.001c-0.177,0.839-0.303,1.879-0.377,3.12
		c-0.075,1.241-0.112,2.747-0.112,4.519c0,1.772,0.037,3.278,0.112,4.519c0.074,1.24,0.2,2.281,0.377,3.12
		C80.473,31.177,80.707,31.84,80.996,32.325z M84.214,18.684c0.028-0.96,0.098-1.669,0.21-2.126c0.112-0.457,0.27-0.737,0.475-0.84
		c0.206-0.102,0.553-0.154,0.907-0.154c0.354,0,0.702,0.052,0.907,0.154c0.205,0.103,0.363,0.382,0.476,0.84
		c0.112,0.457,0.186,1.166,0.224,2.126c0.037,0.961,0.056,2.299,0.056,4.015c0,1.716-0.019,3.055-0.056,4.015
		c-0.037,0.961-0.112,1.67-0.224,2.126c-0.112,0.458-0.27,0.732-0.476,0.826c-0.205,0.093-0.553,0.14-0.907,0.14
		c-0.354,0-0.701-0.046-0.907-0.14c-0.205-0.093-0.363-0.368-0.475-0.826c-0.112-0.457-0.182-1.165-0.21-2.126
		c-0.028-0.96-0.042-2.299-0.042-4.015C84.172,20.984,84.186,19.646,84.214,18.684z"/>
	<path fill="#575756" d="M50.561,35.249c-0.858-0.364-2.014-0.545-3.469-0.545c-1.12,0-2.062,0.158-2.826,0.476
		c-0.153,0.064-0.296,0.146-0.438,0.231c-0.001-0.583-0.023-1.164-0.065-1.743h1.855v-9.429h2.238v9.429h4.477V11.676h-4.477v8.45
		h-2.238v-8.45h-4.477v12.446c-0.058-0.119-0.111-0.239-0.171-0.358c-1.655-3.277-6.384-8.205-5.563-12.25
		c-5.67,8.906-0.476,6.752-1.048,12.14c-0.364,3.434-3.045,7.825-6.507,4.352c-5.647-5.666,8.204-18.36-2.184-24.076
		c2.55,4.21-3.195,7.934-5.25,10.685c-3.883,5.197-3.785,8.548-1.02,14.039c4.471,8.878-13.093,10.271-8.197-2.109
		c-6.119,8.063-5.471,14.286-0.715,22.831c-0.495,0.253-0.955,0.316-1.621,0.279c10.538,10.146,25.768,10.31,32.244-2.702
		c0.022,1.909,0.118,3.507,0.289,4.791c0.196,1.474,0.522,2.639,0.979,3.498c0.457,0.858,1.053,1.454,1.791,1.79
		c0.736,0.336,1.646,0.504,2.728,0.504c0.895,0,1.693-0.108,2.392-0.322c0.7-0.214,1.287-0.569,1.763-1.063
		c0.476-0.495,0.835-1.147,1.077-1.959c0.242-0.812,0.364-1.814,0.364-3.008v-0.56h-3.889v0.532c0,0.709-0.098,1.236-0.294,1.58
		c-0.195,0.346-0.583,0.518-1.161,0.518c-0.317,0-0.579-0.074-0.784-0.224c-0.206-0.149-0.368-0.476-0.489-0.979
		c-0.122-0.503-0.206-1.226-0.252-2.169c-0.047-0.941-0.07-2.205-0.07-3.791c0-1.585,0.023-2.844,0.07-3.777
		c0.046-0.932,0.13-1.641,0.252-2.126c0.121-0.485,0.289-0.802,0.504-0.951c0.214-0.149,0.48-0.224,0.797-0.224
		c0.578,0,0.998,0.112,1.259,0.336v1.847h4.113v-4.589C52.081,36.066,51.419,35.613,50.561,35.249z M26.253,50.706
		c-3.062,0-6.292-1.036-9.264-2.919c0,0,1.156-0.219,1.402-0.808c0.853-2.043-2.475-3.317-2.736-6.07
		c6.127,4.163,11.442-3.521,9.973-8.324c3.06,1.322,1.681,7.078,5.825,6.881c1.265-0.06,3.118-0.871,3.354-3.876
		C38.073,42.32,33.984,50.313,26.253,50.706z"/>
	<path fill="#575756" d="M56.841,35.124L52.56,57.116h4.029l0.504-2.882h3.358l0.419,2.882h4.337l-4.029-21.992H56.841z
		 M57.736,50.456l1.174-6.827l0.979,6.827H57.736z"/>
	<polygon fill="#575756" points="72.366,42.314 69.764,35.124 66.183,35.124 66.183,57.116 70.1,57.116 70.1,44.273 71.667,49.085 
		73.094,49.085 74.633,44.301 74.633,57.116 78.549,57.116 78.549,35.124 74.941,35.124 	"/>
	<path fill="#575756" d="M90.472,36.732c-0.486-0.587-1.147-1.003-1.987-1.245c-0.84-0.242-1.903-0.364-3.19-0.364h-5.204v21.992
		h4.477V50.4h0.727c1.287,0,2.35-0.116,3.19-0.35c0.84-0.233,1.501-0.644,1.987-1.231c0.485-0.588,0.825-1.366,1.021-2.337
		c0.196-0.97,0.294-2.201,0.294-3.694c0-1.473-0.098-2.704-0.294-3.693C91.297,38.109,90.957,37.32,90.472,36.732z M87.324,44.693
		c-0.047,0.448-0.136,0.788-0.266,1.022c-0.131,0.233-0.304,0.387-0.518,0.461c-0.214,0.075-0.489,0.112-0.825,0.112h-1.147v-6.882
		h1.147c0.336,0,0.61,0.037,0.825,0.112c0.214,0.074,0.387,0.238,0.518,0.49c0.13,0.252,0.218,0.606,0.266,1.063
		c0.046,0.457,0.07,1.058,0.07,1.805C87.393,43.639,87.37,44.245,87.324,44.693z"/>
</g>
</svg>
